<svg width="186" height="43" viewBox="0 0 186 43" fill="none" xmlns="http://www.w3.org/2000/svg">
<g id="State=Hover">
<g id="ReGen">
<path d="M21.6363 42.2959L12.1963 25.8939H7.06328V42.2959H0.33728V1.2909H14.4973C17.6439 1.2909 20.2989 1.84157 22.4623 2.9429C24.6649 4.04424 26.2973 5.51924 27.3593 7.36791C28.4606 9.21657 29.0113 11.2816 29.0113 13.5629C29.0113 16.2376 28.2246 18.6762 26.6513 20.8789C25.1173 23.0422 22.7376 24.5172 19.5123 25.3039L29.6603 42.2959H21.6363ZM7.06328 20.5249H14.4973C17.0146 20.5249 18.9026 19.8956 20.1613 18.6369C21.4593 17.3782 22.1083 15.6869 22.1083 13.5629C22.1083 11.4389 21.4789 9.78691 20.2203 8.6069C18.9616 7.38757 17.0539 6.7779 14.4973 6.7779H7.06328V20.5249Z" fill="black"/>
<path d="M67.4106 25.2449C67.4106 26.4642 67.3319 27.5656 67.1746 28.5489H42.3356C42.5323 31.1449 43.4959 33.2296 45.2266 34.8029C46.9573 36.3762 49.0813 37.1629 51.5986 37.1629C55.2173 37.1629 57.7739 35.6486 59.2686 32.6199H66.5256C65.5423 35.6092 63.7526 38.0676 61.1566 39.9949C58.5999 41.8829 55.4139 42.8269 51.5986 42.8269C48.4913 42.8269 45.6986 42.1386 43.2206 40.7619C40.7819 39.3459 38.8546 37.3792 37.4386 34.8619C36.0619 32.3052 35.3736 29.3552 35.3736 26.0119C35.3736 22.6686 36.0423 19.7382 37.3796 17.2209C38.7563 14.6642 40.6639 12.6976 43.1026 11.3209C45.5806 9.94424 48.4126 9.25591 51.5986 9.25591C54.6666 9.25591 57.4003 9.92457 59.7996 11.2619C62.1989 12.5992 64.0673 14.4872 65.4046 16.9259C66.7419 19.3252 67.4106 22.0982 67.4106 25.2449ZM60.3896 23.1209C60.3503 20.6429 59.4653 18.6566 57.7346 17.1619C56.0039 15.6672 53.8603 14.9199 51.3036 14.9199C48.9829 14.9199 46.9966 15.6672 45.3446 17.1619C43.6926 18.6172 42.7093 20.6036 42.3946 23.1209H60.3896Z" fill="black"/>
<path d="M103.707 13.0909C102.645 11.0456 101.17 9.51157 99.2817 8.48891C97.3937 7.42691 95.2107 6.89591 92.7327 6.89591C90.0187 6.89591 87.5997 7.50557 85.4757 8.72491C83.3517 9.94424 81.68 11.6749 80.4607 13.9169C79.2807 16.1589 78.6907 18.7549 78.6907 21.7049C78.6907 24.6549 79.2807 27.2706 80.4607 29.5519C81.68 31.7939 83.3517 33.5246 85.4757 34.7439C87.5997 35.9632 90.0187 36.5729 92.7327 36.5729C96.3907 36.5729 99.3603 35.5502 101.642 33.5049C103.923 31.4596 105.319 28.6866 105.831 25.1859H90.4317V19.8169H113.029V25.0679C112.596 28.2539 111.455 31.1842 109.607 33.8589C107.797 36.5336 105.418 38.6772 102.468 40.2899C99.557 41.8632 96.312 42.6499 92.7327 42.6499C88.878 42.6499 85.3577 41.7649 82.1717 39.9949C78.9857 38.1856 76.4487 35.6879 74.5607 32.5019C72.712 29.3159 71.7877 25.7169 71.7877 21.7049C71.7877 17.6929 72.712 14.0939 74.5607 10.9079C76.4487 7.7219 78.9857 5.2439 82.1717 3.4739C85.397 1.66457 88.9173 0.759903 92.7327 0.759903C97.0987 0.759903 100.973 1.84157 104.356 4.0049C107.778 6.1289 110.256 9.15757 111.79 13.0909H103.707Z" fill="black"/>
<path d="M149.457 25.2449C149.457 26.4642 149.379 27.5656 149.221 28.5489H124.382C124.579 31.1449 125.543 33.2296 127.273 34.8029C129.004 36.3762 131.128 37.1629 133.645 37.1629C137.264 37.1629 139.821 35.6486 141.315 32.6199H148.572C147.589 35.6092 145.799 38.0676 143.203 39.9949C140.647 41.8829 137.461 42.8269 133.645 42.8269C130.538 42.8269 127.745 42.1386 125.267 40.7619C122.829 39.3459 120.901 37.3792 119.485 34.8619C118.109 32.3052 117.42 29.3552 117.42 26.0119C117.42 22.6686 118.089 19.7382 119.426 17.2209C120.803 14.6642 122.711 12.6976 125.149 11.3209C127.627 9.94424 130.459 9.25591 133.645 9.25591C136.713 9.25591 139.447 9.92457 141.846 11.2619C144.246 12.5992 146.114 14.4872 147.451 16.9259C148.789 19.3252 149.457 22.0982 149.457 25.2449ZM142.436 23.1209C142.397 20.6429 141.512 18.6566 139.781 17.1619C138.051 15.6672 135.907 14.9199 133.35 14.9199C131.03 14.9199 129.043 15.6672 127.391 17.1619C125.739 18.6172 124.756 20.6036 124.441 23.1209H142.436Z" fill="black"/>
<path d="M172.479 9.25591C175.035 9.25591 177.317 9.78691 179.323 10.8489C181.368 11.9109 182.961 13.4842 184.102 15.5689C185.242 17.6536 185.813 20.1709 185.813 23.1209V42.2959H179.146V24.1239C179.146 21.2132 178.418 18.9909 176.963 17.4569C175.507 15.8836 173.521 15.0969 171.004 15.0969C168.486 15.0969 166.48 15.8836 164.986 17.4569C163.53 18.9909 162.803 21.2132 162.803 24.1239V42.2959H156.077V9.78691H162.803V13.5039C163.904 12.1666 165.3 11.1242 166.992 10.3769C168.722 9.62957 170.551 9.25591 172.479 9.25591Z" fill="black"/>
</g>
</g>
</svg>
