<svg width="32" height="32" viewBox="0 0 32 32" fill="none" xmlns="http://www.w3.org/2000/svg">
<g id="Icon/Linkedin">
<path id="Vector" d="M21.333 10.6667C23.4547 10.6667 25.4896 11.5096 26.9899 13.0099C28.4902 14.5102 29.333 16.545 29.333 18.6667V28.0001H23.9997V18.6667C23.9997 17.9595 23.7187 17.2812 23.2186 16.7811C22.7185 16.281 22.0403 16.0001 21.333 16.0001C20.6258 16.0001 19.9475 16.281 19.4474 16.7811C18.9473 17.2812 18.6663 17.9595 18.6663 18.6667V28.0001H13.333V18.6667C13.333 16.545 14.1759 14.5102 15.6762 13.0099C17.1764 11.5096 19.2113 10.6667 21.333 10.6667Z" stroke="white" stroke-width="2" stroke-linecap="round" stroke-linejoin="round"/>
<path id="Vector_2" d="M8.00033 12H2.66699V28H8.00033V12Z" stroke="white" stroke-width="2" stroke-linecap="round" stroke-linejoin="round"/>
<path id="Vector_3" d="M5.33366 8.00008C6.80642 8.00008 8.00033 6.80617 8.00033 5.33341C8.00033 3.86066 6.80642 2.66675 5.33366 2.66675C3.8609 2.66675 2.66699 3.86066 2.66699 5.33341C2.66699 6.80617 3.8609 8.00008 5.33366 8.00008Z" stroke="white" stroke-width="2" stroke-linecap="round" stroke-linejoin="round"/>
</g>
</svg>
