<svg width="186" height="43" viewBox="0 0 186 43" fill="none" xmlns="http://www.w3.org/2000/svg">
<g id="State=Default">
<g id="ReGen">
<path d="M21.299 41.536L11.859 25.134H6.726V41.536H0V0.531H14.16C17.3067 0.531 19.9617 1.08167 22.125 2.183C24.3277 3.28433 25.96 4.75933 27.022 6.608C28.1233 8.45667 28.674 10.5217 28.674 12.803C28.674 15.4777 27.8873 17.9163 26.314 20.119C24.78 22.2823 22.4003 23.7573 19.175 24.544L29.323 41.536H21.299ZM6.726 19.765H14.16C16.6773 19.765 18.5653 19.1357 19.824 17.877C21.122 16.6183 21.771 14.927 21.771 12.803C21.771 10.679 21.1417 9.027 19.883 7.847C18.6243 6.62767 16.7167 6.018 14.16 6.018H6.726V19.765Z" fill="black"/>
<path d="M67.0733 24.485C67.0733 25.7043 66.9947 26.8057 66.8373 27.789H41.9983C42.195 30.385 43.1587 32.4697 44.8893 34.043C46.62 35.6163 48.744 36.403 51.2613 36.403C54.88 36.403 57.4367 34.8887 58.9313 31.86H66.1883C65.205 34.8493 63.4153 37.3077 60.8193 39.235C58.2627 41.123 55.0767 42.067 51.2613 42.067C48.154 42.067 45.3613 41.3787 42.8833 40.002C40.4447 38.586 38.5173 36.6193 37.1013 34.102C35.7247 31.5453 35.0363 28.5953 35.0363 25.252C35.0363 21.9087 35.705 18.9783 37.0423 16.461C38.419 13.9043 40.3267 11.9377 42.7653 10.561C45.2433 9.18434 48.0753 8.496 51.2613 8.496C54.3293 8.496 57.063 9.16467 59.4623 10.502C61.8617 11.8393 63.73 13.7273 65.0673 16.166C66.4047 18.5653 67.0733 21.3383 67.0733 24.485Z" fill="black"/>
<path d="M103.369 12.331C102.307 10.2857 100.832 8.75167 98.9444 7.729C97.0564 6.667 94.8734 6.136 92.3954 6.136C89.6814 6.136 87.2624 6.74567 85.1384 7.965C83.0144 9.18433 81.3427 10.915 80.1234 13.157C78.9434 15.399 78.3534 17.995 78.3534 20.945C78.3534 23.895 78.9434 26.5107 80.1234 28.792C81.3427 31.034 83.0144 32.7647 85.1384 33.984C87.2624 35.2033 89.6814 35.813 92.3954 35.813C96.0534 35.813 99.023 34.7903 101.304 32.745C103.586 30.6997 104.982 27.9267 105.493 24.426H90.0944V19.057H112.691V24.308C112.259 27.494 111.118 30.4243 109.269 33.099C107.46 35.7737 105.08 37.9173 102.13 39.53C99.2197 41.1033 95.9747 41.89 92.3954 41.89C88.5407 41.89 85.0204 41.005 81.8344 39.235C78.6484 37.4257 76.1114 34.928 74.2234 31.742C72.3747 28.556 71.4504 24.957 71.4504 20.945C71.4504 16.933 72.3747 13.334 74.2234 10.148C76.1114 6.962 78.6484 4.484 81.8344 2.714C85.0597 0.904667 88.5801 0 92.3954 0C96.7614 0 100.636 1.08167 104.018 3.245C107.44 5.369 109.918 8.39767 111.452 12.331H103.369Z" fill="black"/>
<path d="M149.12 24.485C149.12 25.7043 149.042 26.8057 148.884 27.789H124.045C124.242 30.385 125.206 32.4697 126.936 34.043C128.667 35.6163 130.791 36.403 133.308 36.403C136.927 36.403 139.484 34.8887 140.978 31.86H148.235C147.252 34.8493 145.462 37.3077 142.866 39.235C140.31 41.123 137.124 42.067 133.308 42.067C130.201 42.067 127.408 41.3787 124.93 40.002C122.492 38.586 120.564 36.6193 119.148 34.102C117.772 31.5453 117.083 28.5953 117.083 25.252C117.083 21.9087 117.752 18.9783 119.089 16.461C120.466 13.9043 122.374 11.9377 124.812 10.561C127.29 9.18434 130.122 8.496 133.308 8.496C136.376 8.496 139.11 9.16467 141.509 10.502C143.909 11.8393 145.777 13.7273 147.114 16.166C148.452 18.5653 149.12 21.3383 149.12 24.485Z" fill="black"/>
<path d="M172.141 8.496C174.698 8.496 176.979 9.027 178.985 10.089C181.031 11.151 182.624 12.7243 183.764 14.809C184.905 16.8937 185.475 19.411 185.475 22.361V41.536H178.808V23.364C178.808 20.4533 178.081 18.231 176.625 16.697C175.17 15.1237 173.184 14.337 170.666 14.337C168.149 14.337 166.143 15.1237 164.648 16.697C163.193 18.231 162.465 20.4533 162.465 23.364V41.536H155.739V9.027H162.465V12.744C163.567 11.4067 164.963 10.3643 166.654 9.617C168.385 8.86967 170.214 8.496 172.141 8.496Z" fill="black"/>
</g>
</g>
</svg>
