<svg width="118" height="27" viewBox="0 0 118 27" fill="none" xmlns="http://www.w3.org/2000/svg">
<g id="Layer_1" clip-path="url(#clip0_647_324)">
<path id="Vector" d="M13.5535 26.4312L7.54642 15.9939H4.28006V26.4312H0V0.337891H9.01065C11.0124 0.337891 12.7078 0.689622 14.0989 1.38913C15.488 2.09062 16.5255 3.02923 17.2151 4.20496C17.9027 5.38267 18.2485 6.69672 18.2485 8.14712C18.2485 9.85045 17.7545 11.3957 16.7646 12.7829C15.7746 14.172 14.255 15.1165 12.2039 15.6185L18.6615 26.4312H13.5555H13.5535ZM4.28006 12.5774H9.01065C10.6112 12.5774 11.8206 12.1782 12.6327 11.3759C13.4448 10.5757 13.8519 9.49872 13.8519 8.14712C13.8519 6.79552 13.4508 5.73835 12.6505 4.97561C11.8482 4.21287 10.6349 3.83149 9.00868 3.83149H4.27808V12.5793L4.28006 12.5774Z" fill="black"/>
<path id="Vector_2" d="M42.5378 17.6834H26.7316C26.8561 19.3354 27.4686 20.6632 28.5713 21.6631C29.6719 22.665 31.0235 23.1649 32.6261 23.1649C34.9281 23.1649 36.5544 22.2026 37.5068 20.274H42.1248C41.4984 22.1769 40.3661 23.734 38.728 24.9492C37.0879 26.1645 35.0546 26.7691 32.6261 26.7691C30.6481 26.7691 28.8775 26.3245 27.3125 25.4353C25.7475 24.5481 24.5224 23.2953 23.6332 21.6809C22.744 20.0665 22.2994 18.1952 22.2994 16.067C22.2994 13.9388 22.7302 12.0695 23.5937 10.4551C24.4572 8.84072 25.6705 7.59583 27.2355 6.71847C28.8005 5.8431 30.5947 5.40442 32.6241 5.40442C34.6535 5.40442 36.3153 5.83124 37.8427 6.68093C39.3682 7.53259 40.5578 8.72808 41.4095 10.2674C42.2592 11.8067 42.686 13.5772 42.686 15.5789C42.686 16.3555 42.6346 17.057 42.5358 17.6814L42.5378 17.6834Z" fill="black"/>
<path id="Vector_3" d="M65.7777 7.84682C65.1019 6.5466 64.1633 5.56254 62.9619 4.8986C61.7605 4.23663 60.3713 3.90269 58.7945 3.90269C57.0674 3.90269 55.5281 4.28999 54.1765 5.06656C52.8249 5.84314 51.7677 6.94378 51.003 8.37047C50.2383 9.79715 49.8589 11.4491 49.8589 13.3263C49.8589 15.2035 50.2403 16.8614 51.003 18.3C51.7658 19.7405 52.8249 20.8471 54.1765 21.6217C55.5281 22.3982 57.0674 22.7855 58.7945 22.7855C61.1222 22.7855 63.0113 22.1354 64.4637 20.8332C65.9141 19.533 66.8033 17.7684 67.1293 15.5395H57.3302V12.1229H71.7097V15.4644C71.4331 17.4918 70.7138 19.3571 69.55 21.0585C68.3861 22.7618 66.8724 24.1193 65.0071 25.133C63.1417 26.1467 61.0709 26.6526 58.7945 26.6526C56.3403 26.6526 54.1014 26.0835 52.074 24.9453C50.0466 23.8071 48.4382 22.2224 47.2506 20.195C46.061 18.1676 45.4682 15.8774 45.4682 13.3243C45.4682 10.7713 46.063 8.48112 47.2506 6.45373C48.4382 4.42633 50.0526 2.84354 52.0938 1.70338C54.133 0.565188 56.3679 -0.00390625 58.7965 -0.00390625C61.5747 -0.00390625 64.0467 0.677821 66.2105 2.04127C68.3762 3.4067 69.9471 5.33925 70.9233 7.84287H65.7797L65.7777 7.84682Z" fill="black"/>
<path id="Vector_4" d="M94.7245 17.6834H78.9183C79.0428 19.3354 79.6553 20.6632 80.7579 21.6631C81.8586 22.665 83.2102 23.1649 84.8127 23.1649C87.1148 23.1649 88.7411 22.2026 89.6935 20.274H94.3115C93.6851 22.1769 92.5528 23.734 90.9147 24.9492C89.2746 26.1645 87.2413 26.7691 84.8127 26.7691C82.8347 26.7691 81.0642 26.3245 79.4992 25.4353C77.9342 24.5481 76.7091 23.2953 75.8199 21.6809C74.9307 20.0665 74.488 18.1952 74.488 16.067C74.488 13.9388 74.9188 12.0695 75.7823 10.4551C76.6459 8.84072 77.8591 7.59583 79.4241 6.71847C80.9872 5.8431 82.7834 5.40442 84.8127 5.40442C86.8421 5.40442 88.5039 5.83124 90.0314 6.68093C91.5569 7.53259 92.7465 8.72808 93.5981 10.2674C94.4478 11.8067 94.8746 13.5772 94.8746 15.5789C94.8746 16.3555 94.8233 17.057 94.7245 17.6814V17.6834Z" fill="black"/>
<path id="Vector_5" d="M113.89 6.42007C115.178 7.09587 116.186 8.09771 116.911 9.42362C117.636 10.7515 118 12.3521 118 14.2293V26.4312H113.757V14.8676C113.757 13.016 113.293 11.5953 112.368 10.6053C111.442 9.61727 110.179 9.12327 108.576 9.12327C106.974 9.12327 105.703 9.61727 104.765 10.6053C103.826 11.5933 103.358 13.014 103.358 14.8676V26.4312H99.0776V5.74427H103.358V8.10957C104.057 7.25988 104.954 6.59594 106.043 6.11971C107.132 5.64547 108.29 5.40637 109.515 5.40637C111.141 5.40637 112.6 5.74427 113.888 6.42007H113.89Z" fill="black"/>
</g>
<defs>
<clipPath id="clip0_647_324">
<rect width="118" height="26.7691" fill="white"/>
</clipPath>
</defs>
</svg>
