<svg width="29" height="29" viewBox="0 0 29 29" fill="none" xmlns="http://www.w3.org/2000/svg">
<g id="shopping-cart" clip-path="url(#clip0_1776_255)">
<path id="Vector" d="M11.0037 26.1544C11.6473 26.1544 12.1691 25.6326 12.1691 24.9889C12.1691 24.3453 11.6473 23.8235 11.0037 23.8235C10.36 23.8235 9.83823 24.3453 9.83823 24.9889C9.83823 25.6326 10.36 26.1544 11.0037 26.1544Z" fill="black" stroke="black" stroke-width="2" stroke-linecap="round" stroke-linejoin="round"/>
<path id="Vector_2" d="M23.8236 26.1544C24.4672 26.1544 24.989 25.6326 24.989 24.9889C24.989 24.3453 24.4672 23.8235 23.8236 23.8235C23.1799 23.8235 22.6581 24.3453 22.6581 24.9889C22.6581 25.6326 23.1799 26.1544 23.8236 26.1544Z" fill="black" stroke="black" stroke-width="2" stroke-linecap="round" stroke-linejoin="round"/>
<path id="Vector_3" d="M1.68013 1.68018H6.34191L9.4653 17.2855C9.57187 17.822 9.86377 18.304 10.2899 18.6471C10.716 18.9901 11.2492 19.1723 11.7962 19.1618H23.1243C23.6712 19.1723 24.2045 18.9901 24.6306 18.6471C25.0567 18.304 25.3486 17.822 25.4552 17.2855L27.3199 7.5074H7.50735" stroke="black" stroke-width="2" stroke-linecap="round" stroke-linejoin="round"/>
</g>
<defs>
<clipPath id="clip0_1776_255">
<rect width="27.9707" height="27.9707" fill="white" transform="translate(0.514679 0.514648)"/>
</clipPath>
</defs>
</svg>
