<svg width="186" height="43" viewBox="0 0 186 43" fill="none" xmlns="http://www.w3.org/2000/svg">
<g id="Logo+Hover">
<g id="ReGen">
<path d="M21.8238 41.536L12.3838 25.134H7.25078V41.536H0.52478V0.531H14.6848C17.8314 0.531 20.4864 1.08167 22.6498 2.183C24.8524 3.28433 26.4848 4.75933 27.5468 6.608C28.6481 8.45667 29.1988 10.5217 29.1988 12.803C29.1988 15.4777 28.4121 17.9163 26.8388 20.119C25.3048 22.2823 22.9251 23.7573 19.6998 24.544L29.8478 41.536H21.8238ZM7.25078 19.765H14.6848C17.2021 19.765 19.0901 19.1357 20.3488 17.877C21.6468 16.6183 22.2958 14.927 22.2958 12.803C22.2958 10.679 21.6664 9.027 20.4078 7.847C19.1491 6.62767 17.2414 6.018 14.6848 6.018H7.25078V19.765Z" fill="white"/>
<path d="M67.5981 24.485C67.5981 25.7043 67.5194 26.8057 67.3621 27.789H42.5231C42.7198 30.385 43.6834 32.4697 45.4141 34.043C47.1448 35.6163 49.2688 36.403 51.7861 36.403C55.4048 36.403 57.9614 34.8887 59.4561 31.86H66.7131C65.7298 34.8493 63.9401 37.3077 61.3441 39.235C58.7874 41.123 55.6014 42.067 51.7861 42.067C48.6788 42.067 45.8861 41.3787 43.4081 40.002C40.9694 38.586 39.0421 36.6193 37.6261 34.102C36.2494 31.5453 35.5611 28.5953 35.5611 25.252C35.5611 21.9087 36.2298 18.9783 37.5671 16.461C38.9438 13.9043 40.8514 11.9377 43.2901 10.561C45.7681 9.18434 48.6001 8.496 51.7861 8.496C54.8541 8.496 57.5878 9.16467 59.9871 10.502C62.3864 11.8393 64.2548 13.7273 65.5921 16.166C66.9294 18.5653 67.5981 21.3383 67.5981 24.485Z" fill="white"/>
<path d="M103.894 12.331C102.832 10.2857 101.357 8.75167 99.4692 7.729C97.5812 6.667 95.3982 6.136 92.9202 6.136C90.2062 6.136 87.7872 6.74567 85.6632 7.965C83.5392 9.18433 81.8675 10.915 80.6482 13.157C79.4682 15.399 78.8782 17.995 78.8782 20.945C78.8782 23.895 79.4682 26.5107 80.6482 28.792C81.8675 31.034 83.5392 32.7647 85.6632 33.984C87.7872 35.2033 90.2062 35.813 92.9202 35.813C96.5782 35.813 99.5478 34.7903 101.829 32.745C104.11 30.6997 105.507 27.9267 106.018 24.426H90.6192V19.057H113.216V24.308C112.783 27.494 111.643 30.4243 109.794 33.099C107.985 35.7737 105.605 37.9173 102.655 39.53C99.7445 41.1033 96.4995 41.89 92.9202 41.89C89.0655 41.89 85.5452 41.005 82.3592 39.235C79.1732 37.4257 76.6362 34.928 74.7482 31.742C72.8995 28.556 71.9752 24.957 71.9752 20.945C71.9752 16.933 72.8995 13.334 74.7482 10.148C76.6362 6.962 79.1732 4.484 82.3592 2.714C85.5845 0.904667 89.1048 0 92.9202 0C97.2862 0 101.16 1.08167 104.543 3.245C107.965 5.369 110.443 8.39767 111.977 12.331H103.894Z" fill="white"/>
<path d="M149.645 24.485C149.645 25.7043 149.566 26.8057 149.409 27.789H124.57C124.767 30.385 125.73 32.4697 127.461 34.043C129.192 35.6163 131.316 36.403 133.833 36.403C137.452 36.403 140.008 34.8887 141.503 31.86H148.76C147.777 34.8493 145.987 37.3077 143.391 39.235C140.834 41.123 137.648 42.067 133.833 42.067C130.726 42.067 127.933 41.3787 125.455 40.002C123.016 38.586 121.089 36.6193 119.673 34.102C118.296 31.5453 117.608 28.5953 117.608 25.252C117.608 21.9087 118.277 18.9783 119.614 16.461C120.991 13.9043 122.898 11.9377 125.337 10.561C127.815 9.18434 130.647 8.496 133.833 8.496C136.901 8.496 139.635 9.16467 142.034 10.502C144.433 11.8393 146.302 13.7273 147.639 16.166C148.976 18.5653 149.645 21.3383 149.645 24.485Z" fill="white"/>
<path d="M172.666 8.496C175.223 8.496 177.504 9.027 179.51 10.089C181.555 11.151 183.148 12.7243 184.289 14.809C185.43 16.8937 186 19.411 186 22.361V41.536H179.333V23.364C179.333 20.4533 178.605 18.231 177.15 16.697C175.695 15.1237 173.708 14.337 171.191 14.337C168.674 14.337 166.668 15.1237 165.173 16.697C163.718 18.231 162.99 20.4533 162.99 23.364V41.536H156.264V9.027H162.99V12.744C164.091 11.4067 165.488 10.3643 167.179 9.617C168.91 8.86967 170.739 8.496 172.666 8.496Z" fill="white"/>
</g>
</g>
</svg>
