<svg width="40" height="40" viewBox="0 0 40 40" fill="none" xmlns="http://www.w3.org/2000/svg">
<g id="refresh-cw">
<path id="Vector" d="M38.3334 6.66666V16.6667H28.3334" stroke="black" stroke-width="2" stroke-linecap="round" stroke-linejoin="round"/>
<path id="Vector_2" d="M1.66663 33.3333V23.3333H11.6666" stroke="black" stroke-width="2" stroke-linecap="round" stroke-linejoin="round"/>
<path id="Vector_3" d="M5.84996 15C6.69524 12.6113 8.13185 10.4757 10.0257 8.79236C11.9196 7.10905 14.2091 5.93294 16.6804 5.37376C19.1518 4.81458 21.7245 4.89056 24.1586 5.59462C26.5927 6.29867 28.8087 7.60785 30.6 9.39999L38.3333 16.6667M1.66663 23.3333L9.39996 30.6C11.1912 32.3921 13.4072 33.7013 15.8413 34.4054C18.2754 35.1094 20.8481 35.1854 23.3195 34.6262C25.7908 34.0671 28.0803 32.8909 29.9742 31.2076C31.8681 29.5243 33.3047 27.3887 34.15 25" stroke="black" stroke-width="2" stroke-linecap="round" stroke-linejoin="round"/>
</g>
</svg>
