<svg width="25" height="24" viewBox="0 0 25 24" fill="none" xmlns="http://www.w3.org/2000/svg">
<g id="headphones">
<path id="Vector" d="M3.91565 18V12C3.91565 9.61305 4.86386 7.32387 6.55169 5.63604C8.23952 3.94821 10.5287 3 12.9156 3C15.3026 3 17.5918 3.94821 19.2796 5.63604C20.9674 7.32387 21.9156 9.61305 21.9156 12V18" stroke="black" stroke-width="2" stroke-linecap="round" stroke-linejoin="round"/>
<path id="Vector_2" d="M21.9156 19C21.9156 19.5304 21.7049 20.0391 21.3299 20.4142C20.9548 20.7893 20.4461 21 19.9156 21H18.9156C18.3852 21 17.8765 20.7893 17.5014 20.4142C17.1264 20.0391 16.9156 19.5304 16.9156 19V16C16.9156 15.4696 17.1264 14.9609 17.5014 14.5858C17.8765 14.2107 18.3852 14 18.9156 14H21.9156V19ZM3.91565 19C3.91565 19.5304 4.12636 20.0391 4.50144 20.4142C4.87651 20.7893 5.38522 21 5.91565 21H6.91565C7.44608 21 7.95479 20.7893 8.32986 20.4142C8.70494 20.0391 8.91565 19.5304 8.91565 19V16C8.91565 15.4696 8.70494 14.9609 8.32986 14.5858C7.95479 14.2107 7.44608 14 6.91565 14H3.91565V19Z" stroke="black" stroke-width="2" stroke-linecap="round" stroke-linejoin="round"/>
</g>
</svg>
